<?xml version="1.0" encoding="utf-8"?>
<!-- Generator: Adobe Illustrator 16.0.0, SVG Export Plug-In . SVG Version: 6.00 Build 0)  -->
<!DOCTYPE svg PUBLIC "-//W3C//DTD SVG 1.1//EN" "http://www.w3.org/Graphics/SVG/1.1/DTD/svg11.dtd">
<svg version="1.1" id="Layer_1" xmlns="http://www.w3.org/2000/svg" xmlns:xlink="http://www.w3.org/1999/xlink" x="0px" y="0px"
	 width="360px" height="360px" viewBox="0 0 360 360" enable-background="new 0 0 360 360" xml:space="preserve">
<g>
	<g>
		<g>
			<g>
				
					<rect x="196.759" y="53.838" transform="matrix(-0.4472 -0.8945 0.8945 -0.4472 187.3748 355.9806)" fill="#FFFFFF" width="13.881" height="132.492"/>
			</g>
			<g>
				<rect x="137.512" y="149.72" fill="#FFFFFF" width="13.882" height="48.062"/>
			</g>
			<g>
				
					<rect x="94.4" y="131.262" transform="matrix(-0.8994 -0.4372 0.4372 -0.8994 168.9393 315.2906)" fill="#FFFFFF" width="52.71" height="13.881"/>
			</g>
			<g>
				<polygon fill="#FFFFFF" points="194.564,292.588 180.684,292.588 180.684,187.427 147.557,203.989 141.348,191.573 
					194.564,164.965 				"/>
			</g>
			<g>
				<path fill="#FFFFFF" stroke="#F3D60E" stroke-width="15" stroke-miterlimit="10" d="M144.453,197.781"/>
			</g>
		</g>
		<g>
			<path fill="#FFFFFF" stroke="#F3D60E" stroke-width="15" stroke-miterlimit="10" d="M144.497,197.977"/>
		</g>
		<g>
			<path fill="#FFFFFF" d="M187.398,300.232l-49.72-24.787l-0.159-73.424l-47.412-24.362v-55.273l125.407-62.703L269.9,86.121
				v56.696l-33.721,16.861v119.717L187.398,300.232z M151.543,266.844l36.307,18.1l34.446-14.713V151.098l33.724-16.861V94.808
				L215.602,75.16l-111.61,55.806v38.219l47.395,24.354L151.543,266.844z"/>
		</g>
	</g>
	<g>
		<path fill="#FFFFFF" d="M48.885,298.591c-2.649,0-5.279-1.131-7.11-3.323c-2.572-3.082-5.074-6.291-7.435-9.539
			c-3.005-4.136-2.09-9.924,2.045-12.929c4.134-3.004,9.922-2.09,12.928,2.044c2.119,2.915,4.364,5.795,6.673,8.562
			c3.275,3.924,2.75,9.761-1.174,13.035C53.08,297.886,50.977,298.591,48.885,298.591z"/>
	</g>
	<g>
		<path fill="#FFFFFF" d="M180.005,359.98c-34.088,0-67.273-9.576-95.966-27.691c-4.322-2.73-5.614-8.445-2.885-12.768
			c2.729-4.323,8.445-5.612,12.767-2.885c25.732,16.245,55.499,24.834,86.084,24.834c89.033,0,161.465-72.434,161.465-161.466
			c0-89.033-72.433-161.467-161.465-161.467c-89.033,0-161.467,72.434-161.467,161.467c0,17.774,2.867,35.239,8.521,51.906
			c1.643,4.84-0.951,10.095-5.791,11.737c-4.839,1.644-10.094-0.95-11.738-5.793c-6.305-18.584-9.502-38.049-9.502-57.851
			c0-99.24,80.737-179.977,179.977-179.977c99.24,0,179.977,80.737,179.977,179.977C359.981,279.245,279.245,359.98,180.005,359.98z
			"/>
	</g>
</g>
</svg>
