<?xml version="1.0" encoding="utf-8"?>
<!-- Generator: Adobe Illustrator 16.0.0, SVG Export Plug-In . SVG Version: 6.00 Build 0)  -->
<!DOCTYPE svg PUBLIC "-//W3C//DTD SVG 1.1//EN" "http://www.w3.org/Graphics/SVG/1.1/DTD/svg11.dtd">
<svg version="1.1" id="Layer_1" xmlns="http://www.w3.org/2000/svg" xmlns:xlink="http://www.w3.org/1999/xlink" x="0px" y="0px"
	 width="360px" height="360px" viewBox="0 0 360 360" enable-background="new 0 0 360 360" xml:space="preserve">
<g>
	<g>
		<g>
			<g>
				
					<rect x="196.765" y="53.844" transform="matrix(0.4472 0.8944 -0.8944 0.4472 220.0121 -115.8155)" fill="#F3D60E" width="13.882" height="132.496"/>
			</g>
			<g>
				<rect x="137.512" y="149.72" fill="#F3D60E" width="13.882" height="48.062"/>
			</g>
			<g>
				
					<rect x="94.397" y="131.257" transform="matrix(0.8994 0.4372 -0.4372 0.8994 72.5718 -38.8847)" fill="#F3D60E" width="52.708" height="13.881"/>
			</g>
			<g>
				<polygon fill="#F3D60E" points="194.564,292.588 180.683,292.588 180.683,187.427 147.557,203.989 141.348,191.573 
					194.564,164.965 				"/>
			</g>
			<g>
				<path fill="none" stroke="#F3D60E" stroke-width="15" stroke-miterlimit="10" d="M144.453,197.781"/>
			</g>
		</g>
		<g>
			<path fill="none" stroke="#F3D60E" stroke-width="15" stroke-miterlimit="10" d="M144.497,197.977"/>
		</g>
		<g>
			<path fill="#F3D60E" d="M187.399,300.233l-49.721-24.788l-0.159-73.423l-47.412-24.363v-55.273l125.407-62.703l54.387,26.438
				v56.696l-33.722,16.861v119.717L187.399,300.233z M151.543,266.844l36.306,18.1l34.447-14.714V151.098l33.723-16.861V94.808
				L215.601,75.16l-111.61,55.806v38.219l47.395,24.354L151.543,266.844z"/>
		</g>
	</g>
	<g>
		<path fill="#F3D60E" d="M48.885,298.591c-2.649,0-5.279-1.131-7.11-3.324c-2.572-3.081-5.074-6.29-7.435-9.538
			c-3.005-4.136-2.09-9.924,2.045-12.929c4.134-3.004,9.922-2.09,12.928,2.044c2.119,2.915,4.364,5.795,6.673,8.562
			c3.275,3.924,2.75,9.761-1.174,13.036C53.08,297.886,50.977,298.591,48.885,298.591z"/>
	</g>
	<g>
		<path fill="#F3D60E" d="M180.005,359.981c-34.088,0-67.273-9.576-95.966-27.692c-4.322-2.73-5.614-8.445-2.885-12.768
			c2.729-4.323,8.445-5.612,12.767-2.884c25.732,16.245,55.499,24.833,86.084,24.833c89.033,0,161.465-72.433,161.465-161.465
			c0-89.033-72.433-161.467-161.465-161.467c-89.033,0-161.467,72.434-161.467,161.467c0,17.774,2.867,35.239,8.521,51.906
			c1.643,4.84-0.951,10.095-5.791,11.737c-4.839,1.644-10.094-0.95-11.738-5.792c-6.305-18.585-9.502-38.05-9.502-57.851
			c0-99.24,80.737-179.977,179.977-179.977s179.976,80.737,179.976,179.977S279.245,359.981,180.005,359.981z"/>
	</g>
</g>
</svg>
